<svg width="1440" height="3232" viewBox="0 0 1440 3232" fill="none" xmlns="http://www.w3.org/2000/svg">
<mask id="mask0_0_562" style="mask-type:alpha" maskUnits="userSpaceOnUse" x="0" y="0" width="1440" height="3232">
<rect width="1440" height="3232" fill="url(#paint0_linear_0_562)"/>
</mask>
<g mask="url(#mask0_0_562)">
<path d="M570.07 1935.6C586.11 1966.41 618.06 1988.6 652.974 1990.94C683.879 1992.98 717.834 1979.32 732.011 1950.4C744.57 1924.77 740.559 1888.69 715.757 1871.67C693.876 1856.66 659.162 1861.31 643.814 1883.52C628.252 1906.03 639.896 1935.34 659.26 1951.18C682.758 1970.47 714.539 1968.79 741.162 1957.22C776.545 1941.88 801.415 1911.74 828.28 1885.32C853.345 1860.66 884.513 1836.44 921.362 1835.77C959.482 1835.05 990.505 1863.25 1003.9 1897.22C1010.68 1914.44 1013.62 1933.02 1013.86 1951.47C1014.12 1970.18 1011.54 1989.21 1004.36 2006.6C991.166 2038.48 958.197 2066.13 921.852 2058.35C906.086 2054.97 891.284 2045.25 883.67 2030.81C876.216 2016.66 877.279 1999.75 884.09 1985.59C890.945 1971.21 903.138 1960.09 918.075 1954.57C933.641 1948.91 950.838 1949.2 966.659 1953.66C1005.64 1964.67 1030.95 1999.59 1047.5 2034.52C1063.39 2068.03 1074.84 2105.32 1102.81 2131.28C1114.16 2141.82 1127.87 2150.31 1143.13 2153.64C1158.81 2157.03 1174.73 2154.22 1189.14 2147.4C1225.18 2130.41 1245.93 2094.07 1278.25 2072.07C1304.82 2053.99 1337.33 2045.28 1369.37 2046.52C1385.42 2047.11 1401.27 2050.31 1416.29 2055.99C1434.31 2062.88 1450.01 2074.65 1468.16 2081.2C1482.4 2086.33 1499.66 2087.79 1513.07 2079.6C1528.89 2069.95 1533.73 2050.69 1539.2 2034.26C1544.38 2018.65 1553.45 2000.14 1571.52 1997.27C1572.95 1997.04 1572.32 1994.87 1570.9 1995.11C1554.84 1997.67 1545.2 2012.54 1539.58 2026.58C1532.63 2043.94 1529.8 2066.01 1512.87 2077.07C1497.43 2087.19 1477.47 2083.2 1461.68 2076.2C1444.99 2068.75 1429.94 2058.3 1412.57 2052.3C1383.29 2042.17 1350.89 2041.66 1321.1 2049.91C1306.15 2054.02 1291.93 2060.43 1278.95 2068.91C1262.54 2079.69 1249.09 2094.07 1235.46 2108.07C1210.66 2133.42 1178.53 2160.93 1140.34 2150.63C1105.09 2141.07 1083.49 2108.24 1068.93 2077.12C1052.23 2041.33 1039.22 2003.16 1009.33 1975.7C985.652 1953.96 951.28 1941.27 919.594 1951.67C893.078 1960.41 872.644 1987.86 876.7 2016.42C880.995 2046.52 912.917 2065.07 941.658 2061.43C975.382 2057.16 1000.15 2028.95 1009.91 1997.85C1020.17 1965.01 1018.35 1925.99 1005.11 1894.27C992.24 1863.42 964.91 1837.26 930.544 1833.89C898.339 1830.73 867.692 1847.58 843.936 1867.81C813.345 1893.87 789.319 1927.81 754.108 1948.16C727.181 1963.73 691.624 1971.58 664.428 1952.32C642.18 1936.56 628.17 1902.92 649.295 1880.28C659.445 1869.41 674.94 1864.53 689.551 1865.35C705.282 1866.07 719.655 1874.48 727.992 1887.84C736.475 1901.45 738.562 1918.51 735.262 1934.06C731.738 1950.43 722.053 1964.82 708.213 1974.25C678.634 1994.72 638.632 1992.62 608.726 1974.1C593.159 1964.42 580.479 1950.73 572.009 1934.47C571.336 1933.17 569.404 1934.32 570.07 1935.6Z" fill="#9A97ED"/>
<path opacity="0.3" d="M-178.292 1237.41C-171.762 1267.68 -147.172 1291.84 -117.972 1300.85C-87.7224 1310.18 -55.9724 1300.75 -34.7724 1277.46C-14.3224 1254.97 -4.67239 1221.46 -15.8524 1192.36C-26.3124 1165.14 -56.1424 1141.49 -85.9624 1154.63C-111.142 1165.73 -125.862 1198.63 -114.872 1224.33C-103.882 1250.03 -73.1224 1262.52 -46.5624 1257.82C-13.0524 1251.88 5.43762 1219.32 14.8076 1189.55C26.2276 1153.49 27.9076 1111.48 54.1876 1081.94C74.9076 1058.65 107.188 1047.23 138.018 1049.55C153.467 1050.61 168.408 1055.51 181.488 1063.8C195.678 1072.97 207.828 1088.62 209.488 1105.88C211.338 1125.08 196.608 1138.88 178.118 1140.27C157.788 1141.78 140.018 1129.46 124.588 1117.75C95.1276 1095.38 65.7976 1066.75 56.7176 1029.59C48.7176 996.678 57.7776 957.098 89.1076 939.648C124.628 919.868 167.018 933.948 198.358 954.918C215.358 966.298 230.868 979.828 246.358 993.148C262.108 1006.69 277.778 1020.35 294.168 1033.15C325.248 1057.37 359.358 1078.5 398.098 1087.61C434.438 1096.16 473.518 1093.61 505.708 1073.44C535.708 1054.7 556.878 1024.44 570.448 992.258C587.448 952.058 594.128 908.358 602.268 865.758L628.388 729.118L640.908 663.598C641.178 662.188 639.018 661.598 638.738 662.998L612.928 797.998C604.538 841.918 597.108 886.148 587.268 929.768C578.498 968.598 565.728 1007.55 540.458 1038.98C529.268 1052.9 515.838 1065.14 500.278 1074.03C483.281 1083.57 464.281 1088.99 444.808 1089.86C360.098 1094.21 295.188 1031.47 235.298 980.738C206.758 956.578 174.978 931.738 136.298 928.418C119.578 926.968 102.098 929.618 87.3876 938.008C74.114 945.737 63.8072 957.684 58.1076 971.948C45.4576 1002.73 52.3276 1037.4 69.7576 1064.78C79.5276 1080.08 92.1076 1093.41 105.708 1105.31C119.608 1117.46 134.878 1130.17 151.928 1137.55C166.448 1143.83 184.338 1145.26 197.998 1136C210.198 1127.72 214.058 1113.06 210.568 1099.19C202.968 1068.98 172.378 1051.53 143.318 1047.84C114.498 1044.19 83.9476 1052.62 61.7076 1071.46C33.4176 1095.46 26.6276 1132.92 18.4876 1167.17C10.7876 1199.61 -2.20238 1239.44 -36.3924 1252.67C-63.7024 1263.24 -99.8924 1251.9 -112.392 1224.4C-125.042 1196.62 -105.392 1158.76 -75.1024 1153.68C-38.8024 1147.58 -13.0024 1187.24 -13.3724 1219.29C-13.7424 1251.34 -34.3724 1282.68 -63.5924 1295.89C-94.0124 1309.62 -130.012 1299.98 -153.352 1277.25C-164.75 1266.31 -172.662 1252.26 -176.092 1236.84C-176.402 1235.41 -178.562 1236.03 -178.292 1237.41Z" fill="#9A97ED"/>
</g>
<defs>
<linearGradient id="paint0_linear_0_562" x1="1440" y1="3232" x2="1440" y2="0" gradientUnits="userSpaceOnUse">
<stop stop-color="white" stop-opacity="0.01"/>
<stop offset="1" stop-color="#EDE5F0"/>
</linearGradient>
</defs>
</svg>
